<svg xmlns="http://www.w3.org/2000/svg" xmlns:xlink="http://www.w3.org/1999/xlink" viewBox="0 0 498.32 316.64"><defs><style>.cls-1{fill:#dca86e;}.cls-2{fill:url(#linear-gradient);}.cls-3{fill:#2167be;}.cls-4{fill:url(#linear-gradient-2);}.cls-5{fill:#277fd9;}.cls-6{fill:#fec4ad;}.cls-7{fill:url(#linear-gradient-3);}.cls-8{fill:#ff5e69;}.cls-9{fill:url(#linear-gradient-4);}.cls-10{fill:#f8d2a1;}.cls-11,.cls-14{fill:none;stroke-miterlimit:10;}.cls-11{stroke:#d4dbe2;stroke-width:0.25px;}.cls-12{fill:#ffba01;}.cls-13{fill:#d2dceb;}.cls-14{stroke:#a6aeba;stroke-width:0.5px;}.cls-15{fill:#50cc85;}.cls-16{fill:#77e6a6;}.cls-17{fill:#f3ba7a;}.cls-18{fill:#a6aeba;}.cls-19{fill:#b6bfcc;}.cls-20{fill:#fff;}</style><linearGradient id="linear-gradient" x1="310.42" y1="292.16" x2="339.31" y2="292.16" gradientTransform="matrix(0.81, 0.59, -0.59, 0.81, 198.71, -127.14)" gradientUnits="userSpaceOnUse"><stop offset="0" stop-color="#343a44"/><stop offset="0.3" stop-color="#232d3e"/><stop offset="0.64" stop-color="#182439"/><stop offset="1" stop-color="#142138"/></linearGradient><linearGradient id="linear-gradient-2" x1="315.3" y1="303.59" x2="344.19" y2="303.59" gradientTransform="matrix(1, 0, 0, 1, 0, 0)" xlink:href="#linear-gradient"/><linearGradient id="linear-gradient-3" x1="302.71" y1="110.33" x2="334.03" y2="110.33" gradientTransform="matrix(-0.66, -0.75, -0.75, 0.66, 760.56, 327.95)" xlink:href="#linear-gradient"/><linearGradient id="linear-gradient-4" x1="369.07" y1="213.47" x2="464.84" y2="213.47" gradientTransform="matrix(1, 0, 0, 1, 0, 0)" xlink:href="#linear-gradient"/></defs><g id="Layer_2" data-name="Layer 2"><g id="OBJECTS"><polygon class="cls-1" points="422.51 245.61 455.37 316.64 459.07 316.63 430.66 241 422.51 245.61"/><polygon class="cls-1" points="388.52 247.13 355.65 316.64 351.95 316.63 380.37 245.55 388.52 247.13"/><path class="cls-2" d="M305,301.42,288.32,316l-19.69-13.86s6.7-2.24,18.19.82l11.76-9.89Z"/><path class="cls-3" d="M401.71,220.8s-36.92,18.92-50,24.58-57.41,50.09-57.41,50.09S300,307,302.86,305c25.05-17.91,48.13-33.94,63-39.53,29.37-11.08,37.56-13.49,45.08-22.2C410.9,243.28,406.49,232.8,401.71,220.8Z"/><path class="cls-4" d="M344.19,294l-4.81,21.66-24.08.48s4.07-5.77,15.15-10.11l3.63-14.92Z"/><path class="cls-5" d="M402.6,216s-34.34,3.71-46.85,10.45S333.26,295,333.26,295s9.73,5.28,10.93,2a450.55,450.55,0,0,1,20.48-47.15c12.34-2.25,40.92,11.66,61.57-8.69C426.24,241.15,408.38,227.55,402.6,216Z"/><path class="cls-6" d="M461.77,174.25a45.77,45.77,0,0,0-4,9.25l-14.13-1.3s7.3-11,6.74-17.75Z"/><path class="cls-6" d="M458.73,151.43c-.8-.22-3.82-1.05-4.43-.8-.84.35.14,1.46-.46,2.14-1,1.09-2.89,1.12-4.14,1.78a8.21,8.21,0,0,0-3.35,3.09c-1.15,2,3,6.53,3.7,9.91,1.37,7.07,10.31,8.12,17.57,5.95a12.56,12.56,0,0,0,6.4-5.37c1.67-2.66.73-7.11-.67-9.76a12.39,12.39,0,0,0-3.93-4c-1.31-.9-1.67-4.66-3.25-4.93C466.17,149.48,460.54,151.9,458.73,151.43Z"/><path class="cls-7" d="M479,170.41s-.24-1.18,1.81-3.11c6.77-6.38-.47-18.86-7.86-21-3.77-1.11-6.19.06-7.54-3.69.09.27-1.53,1-1.69,1.09a2.93,2.93,0,0,0-1.34,2.52c-.12,5.45,4.76,10.53,8.45,14,1.66,1.54-2.43.48-4.07.79-1.08.21-3.86,3.15-4.46,3.59,1.55,1.93,2.93.19,5,1.12,1.93.86.71,3.32-1.09,3.61a3.77,3.77,0,0,1-3.92-1.39c-1.28.69-1.48,4.83-2.49,5.91,1.39.76,9.46,2.18,11.36,2.16A8.08,8.08,0,0,0,479,170.41Z"/><path class="cls-8" d="M461.31,176.45c3,33-35.07,64.7-35.07,64.7s-24.83.93-23.64-25.16c0,0,1.93-4.74,17.31-18.68,10.27-9.3,17.49-23.2,24.71-22.92C464.36,175.15,461.31,176.45,461.31,176.45Z"/><path class="cls-9" d="M369.07,243s22.9,8.55,53.43-3,38.85-65.65,38.85-65.65l3.49,1.77s-3.39,59.67-43.59,72.63c-30.72,9.91-52.18-1.89-52.18-1.89Z"/><path class="cls-10" d="M457.64,209.45s3.66,12.67,3.86,19S459,256.2,459,256.2l5.82.73s5.17-25.56,5.29-33.9-4.69-21.85-4.69-21.85Z"/><path class="cls-8" d="M457.28,210c4.22,18.46,2.47,43.19,2.47,43.19l6.31.4c6.92-14.47,6.28-46.55,2.62-60-2.15-7.93-3.42-15.92-8.79-17.16-3.35-.77-10.25,1.69-11.17,5C446.71,188.56,455.2,200.93,457.28,210Z"/><path class="cls-10" d="M456.4,259.39c-1.39,2.65-2,4.6-1.2,5.26.56.47,1.47-2.11,2.57-3a8,8,0,0,1-.31,4.77c-.78,1.91-.71,3.55.74,3.69s3.82,0,4.34-1.16,1.72-6.23,2.37-7.9-.21-3.6,0-4.55-4.29-2.56-4.29-2.56c-.25.38-1.65,2.29-1.65,2.29a14.46,14.46,0,0,1-1.58,1.67A5.42,5.42,0,0,0,456.4,259.39Z"/><line class="cls-11" x1="421.94" x2="421.94" y2="44"/><path class="cls-12" d="M429.73,60.92a7.72,7.72,0,1,1-7.1-8.29A7.71,7.71,0,0,1,429.73,60.92Z"/><polygon class="cls-13" points="458.38 63.6 385.5 63.6 417.4 40.4 426.49 40.4 458.38 63.6"/><line class="cls-11" x1="78.88" x2="78.88" y2="44"/><path class="cls-12" d="M86.67,60.92a7.72,7.72,0,1,1-7.1-8.29A7.72,7.72,0,0,1,86.67,60.92Z"/><polygon class="cls-13" points="115.31 63.6 42.44 63.6 74.33 40.4 83.42 40.4 115.31 63.6"/><line class="cls-14" y1="316.29" x2="498.32" y2="316.29"/><path class="cls-15" d="M181.15,163.2a30.54,30.54,0,0,1,4.33-7.12c2.79-3.35,7-8.93,7-8.93s-2,4-4.78,8.46A34.43,34.43,0,0,1,181.15,163.2Z"/><path class="cls-15" d="M184,156.66a17.72,17.72,0,0,0,4.95-7.57c1.86-5.15,3.55-9.06,3.55-9.06a72.68,72.68,0,0,0-5.73,9.71C185.07,153.72,184,156.66,184,156.66Z"/><path class="cls-15" d="M181.35,162.47a64.81,64.81,0,0,0,1.94-10.57c.32-4.7.28-7.65.28-7.65s-2,8.52-2.65,12.14A11.68,11.68,0,0,0,181.35,162.47Z"/><path class="cls-15" d="M180,166.38a34.22,34.22,0,0,0-1.18-11.48A35.8,35.8,0,0,1,177,146a36.57,36.57,0,0,0,.15,10.57A69.74,69.74,0,0,0,180,166.38Z"/><path class="cls-15" d="M180.47,165s4.31-3.67,6.48-4.54a25.44,25.44,0,0,0,5.2-3.38s-3.73,4.78-5.82,5.73S180.47,165,180.47,165Z"/><path class="cls-15" d="M179,170.18a17.43,17.43,0,0,0-1.51-8,42.58,42.58,0,0,1-2.37-7s-.11,6.37,1.15,8.75S179,170.18,179,170.18Z"/><path class="cls-15" d="M179.39,167.77a13.82,13.82,0,0,1,4.86-2,12,12,0,0,0,3-.66,5.66,5.66,0,0,1-4.15,2.57C180.18,168.08,179.39,167.77,179.39,167.77Z"/><path class="cls-15" d="M177.77,173.34c.54-2.08,1.22-5.3,1.93-7.44A66,66,0,0,1,185,155c-2.27,5.05-3.93,7.88-5.08,12.23-.45,1.73-1.23,4.12-1.66,5.69C178.18,173.38,177.84,173.74,177.77,173.34Z"/><path class="cls-16" d="M178.87,164.9a32.45,32.45,0,0,0-1.89-8.65c-1.65-4.34-3.9-11.39-3.9-11.39s.66,4.69,1.88,10.16A36.53,36.53,0,0,0,178.87,164.9Z"/><path class="cls-16" d="M178.23,157.32a18.9,18.9,0,0,1-2.36-9.32c-.08-5.81-.43-10.34-.43-10.34a76.61,76.61,0,0,1,2.4,11.75C178.2,154,178.23,157.32,178.23,157.32Z"/><path class="cls-16" d="M178.91,164.09a68.61,68.61,0,0,1,1.72-11.3C181.93,148,183,145,183,145s-.9,9.27-1.53,13.12A12.47,12.47,0,0,1,178.91,164.09Z"/><path class="cls-16" d="M179,168.5a36.52,36.52,0,0,1,5.16-11.13,38.23,38.23,0,0,0,4.87-8.28,39,39,0,0,1-3.8,10.56A74.74,74.74,0,0,1,179,168.5Z"/><path class="cls-16" d="M178.91,167s-3-5.18-4.94-6.81a27.28,27.28,0,0,1-4.06-5.2s2.1,6.11,3.87,7.78S178.91,167,178.91,167Z"/><path class="cls-16" d="M178.63,172.66a18.34,18.34,0,0,1,4.28-7.51,44.78,44.78,0,0,0,4.8-6.23s-2.09,6.44-4.19,8.4S178.63,172.66,178.63,172.66Z"/><path class="cls-16" d="M179.05,170.1a14.87,14.87,0,0,0-4.19-3.68,12.73,12.73,0,0,1-2.81-1.7,6,6,0,0,0,3.28,4C178.16,170.13,179.05,170.1,179.05,170.1Z"/><path class="cls-15" d="M178.76,176.25c.18-2.27.6-5.74.63-8.15a69.69,69.69,0,0,0-1.56-12.73c.54,5.85,1.23,9.28.87,14-.14,1.89-.18,4.56-.3,6.28C178.33,176.16,178.55,176.64,178.76,176.25Z"/><path class="cls-15" d="M175.6,165.79a31,31,0,0,0-4.33-7.12c-2.8-3.35-7-8.93-7-8.93s2,4,4.79,8.46A34.13,34.13,0,0,0,175.6,165.79Z"/><path class="cls-15" d="M172.71,159.25a17.83,17.83,0,0,1-5-7.57c-1.86-5.15-3.55-9.06-3.55-9.06a73.46,73.46,0,0,1,5.74,9.71C171.67,156.31,172.71,159.25,172.71,159.25Z"/><path class="cls-15" d="M175.39,165.06a64.81,64.81,0,0,1-1.94-10.57c-.31-4.7-.28-7.65-.28-7.65s2,8.52,2.66,12.14A11.74,11.74,0,0,1,175.39,165.06Z"/><path class="cls-15" d="M176.77,169A34.36,34.36,0,0,1,178,157.49a36,36,0,0,0,1.79-8.86,36.56,36.56,0,0,1-.15,10.57A69.74,69.74,0,0,1,176.77,169Z"/><path class="cls-15" d="M176.27,167.63s-4.3-3.67-6.48-4.54a25.75,25.75,0,0,1-5.2-3.38s3.74,4.78,5.83,5.73S176.27,167.63,176.27,167.63Z"/><path class="cls-15" d="M177.76,172.77a17.32,17.32,0,0,1,1.5-8,41.33,41.33,0,0,0,2.37-7s.12,6.37-1.15,8.75A67,67,0,0,0,177.76,172.77Z"/><path class="cls-15" d="M177.36,170.36a13.92,13.92,0,0,0-4.86-2,11.85,11.85,0,0,1-3-.66,5.63,5.63,0,0,0,4.14,2.57C176.56,170.67,177.36,170.36,177.36,170.36Z"/><path class="cls-15" d="M179,175.93c-.53-2.08-1.22-5.3-1.93-7.45a65.31,65.31,0,0,0-5.29-10.85c2.28,5.05,3.94,7.88,5.08,12.23.45,1.73,1.24,4.12,1.66,5.69C178.56,176,178.9,176.33,179,175.93Z"/><polygon class="cls-13" points="184.44 190.45 172.77 190.45 169.16 169.9 188.46 169.9 184.44 190.45"/><polygon class="cls-1" points="317.73 196.1 336.97 316.4 340.68 316.39 325.45 196.07 317.73 196.1"/><polygon class="cls-1" points="185.09 196.15 160.03 316.58 155.04 316.59 174.69 196.18 185.09 196.15"/><rect class="cls-1" x="145.65" y="189.07" width="207.03" height="9.27"/><rect class="cls-17" x="135.72" y="189.07" width="226.88" height="6.15"/><polygon class="cls-18" points="299.15 185.82 291.1 185.82 283.05 134.45 289.17 134.45 299.15 185.82"/><polygon class="cls-13" points="296.84 185.82 265.41 185.82 257.36 134.45 288.79 134.45 296.84 185.82"/><rect class="cls-13" x="264.99" y="184.66" width="34.16" height="3.83"/><rect class="cls-18" x="299.15" y="184.66" width="43.07" height="3.83"/><path class="cls-18" d="M279.58,162.63c.91,3.94.27,8.18-1.43,9.49s-3.81-.82-4.72-4.75-.27-8.18,1.43-9.49S278.67,158.7,279.58,162.63Z"/><path class="cls-18" d="M230.69,188.31h-4.45a3.74,3.74,0,0,1-3.7-3.16l-1.78-11.47h15.41l-1.79,11.47A3.72,3.72,0,0,1,230.69,188.31Z"/><path class="cls-18" d="M234.82,185.87l-.49,0-.21,0-.16-.13c-.12-.08-2.72-2.12-2.72-5s2-5.41,4.42-5.41a4.61,4.61,0,0,1,3.59,1.52,4.67,4.67,0,0,1,.82,4h0C239.48,184,237.58,185.87,234.82,185.87Zm-.16-1.41c2.81.09,3.7-2.07,4-3.92h0a3.35,3.35,0,0,0-.52-2.86,3.22,3.22,0,0,0-2.51-1c-1.66,0-3,1.8-3,4A5.59,5.59,0,0,0,234.66,184.46Z"/><polygon class="cls-13" points="219.23 189.32 238.75 189.32 241.86 185.87 216.12 185.87 219.23 189.32"/><rect class="cls-19" x="22.39" y="114.33" width="93.4" height="202.04"/><rect class="cls-13" x="33.14" y="123.16" width="71.9" height="21.18"/><rect class="cls-20" x="59.69" y="131.18" width="18.8" height="5.14" rx="0.8"/><rect class="cls-13" x="33.14" y="150.11" width="71.9" height="21.18"/><rect class="cls-20" x="59.69" y="158.14" width="18.8" height="5.14" rx="0.8"/><rect class="cls-13" x="33.14" y="177.07" width="71.9" height="21.18"/><rect class="cls-20" x="59.69" y="185.1" width="18.8" height="5.14" rx="0.8"/><rect class="cls-13" x="33.14" y="204.34" width="71.9" height="103.84"/><rect class="cls-20" x="59.69" y="212.36" width="18.8" height="5.14" rx="0.8"/></g></g></svg>